<svg xmlns="http://www.w3.org/2000/svg"
     width="1200" height="630"
     viewBox="0 0 1200 630">

  <defs>
    <style>
      .blue   { fill: #37a4ff; }
      .yellow { fill: #ffd952; }
      .text   { fill: #37a4ff; font-family: 'Inter', 'Helvetica Neue', Arial, sans-serif; font-weight: 700; }
      .tag    { fill: #8ab4d4; font-family: 'Inter', 'Helvetica Neue', Arial, sans-serif; }
    </style>
  </defs>

  <!-- Background -->
  <rect width="1200" height="630" fill="#eef7ff"/>

  <!--
    Layout:
      Matrix:  4×4, cell=50px, gap=12px  → 236px wide, 236px tall
      Gap:     24px
      Text:    "UNITMATRIX" font-size=100 → ~620px estimated
      Total:   236 + 24 + 620 = ~880px
      Left:    (1200 - 880) / 2 = 160px
      Top:     (630 - 236) / 2 = 197px  (matrix vertically centered)
      Text y:  matrix center (118px) + font cap-height offset (35px) = 153px (relative)
  -->
  <g transform="translate(160, 197)">

    <!-- 4×4 matrix icon -->
    <rect x="0"   y="0"   width="50" height="50" rx="7" class="blue"/>
    <rect x="62"  y="0"   width="50" height="50" rx="7" class="blue"/>
    <rect x="124" y="0"   width="50" height="50" rx="7" class="blue"/>
    <rect x="186" y="0"   width="50" height="50" rx="7" class="blue"/>

    <rect x="0"   y="62"  width="50" height="50" rx="7" class="blue"/>
    <rect x="62"  y="62"  width="50" height="50" rx="7" class="yellow"/>
    <rect x="124" y="62"  width="50" height="50" rx="7" class="blue"/>
    <rect x="186" y="62"  width="50" height="50" rx="7" class="blue"/>

    <rect x="0"   y="124" width="50" height="50" rx="7" class="blue"/>
    <rect x="62"  y="124" width="50" height="50" rx="7" class="blue"/>
    <rect x="124" y="124" width="50" height="50" rx="7" class="blue"/>
    <rect x="186" y="124" width="50" height="50" rx="7" class="blue"/>

    <rect x="0"   y="186" width="50" height="50" rx="7" class="blue"/>
    <rect x="62"  y="186" width="50" height="50" rx="7" class="blue"/>
    <rect x="124" y="186" width="50" height="50" rx="7" class="blue"/>
    <rect x="186" y="186" width="50" height="50" rx="7" class="blue"/>

    <!-- UNITMATRIX wordmark -->
    <text x="260" y="153" font-size="100" letter-spacing="3" class="text">UNITMATRIX</text>
  </g>

  <!-- Tagline -->
  <text x="600" y="500" font-size="28" text-anchor="middle" letter-spacing="2" class="tag">All Units. One Matrix.</text>

</svg>
